<svg width="92" height="92" fill="none" xmlns="http://www.w3.org/2000/svg"><rect width="92" height="92" rx="10" fill="#111"/><path d="M39.71 24.438a4.492 4.492 0 0 0 0 8.985h4.493v10.78H25.336a4.492 4.492 0 0 1-4.492-4.491v-1.797a4.492 4.492 0 0 1 4.492-4.492h7.65A8.086 8.086 0 0 1 46 23.846a8.086 8.086 0 0 1 13.014 9.577h9.447a4.494 4.494 0 0 1 4.492 4.492v1.797a4.492 4.492 0 0 1-4.492 4.492H47.797V33.423h4.492a4.492 4.492 0 1 0-4.492-4.493v4.493h-3.594V28.93a4.492 4.492 0 0 0-4.492-4.492Zm4.493 23.36H24.437v16.171a5.39 5.39 0 0 0 5.391 5.391h14.375V47.798Zm3.594 0V69.36h16.172a5.39 5.39 0 0 0 5.39-5.39V47.797H47.797Z" fill="#fff"/></svg>